<mxfile host="app.diagrams.net" modified="2024-04-21T09:50:07.160Z" agent="Mozilla/5.0 (X11; Linux x86_64) AppleWebKit/537.36 (KHTML, like Gecko) Chrome/123.0.0.0 Safari/537.36" version="24.0.7" etag="srfJNh1L6FVjFCOw2bbv" type="github">
  <diagram name="Page-1" id="yOD_z8t2yDMUcpz38mWG">
    <mxGraphModel>
      <root>
        <mxCell id="0" />
        <mxCell id="1" parent="0" />
      </root>
    </mxGraphModel>
  </diagram>
</mxfile>
